<svg width="228" height="58" xmlns="http://www.w3.org/2000/svg" xmlns:xlink="http://www.w3.org/1999/xlink"><defs><path d="M.705 1.439l-.344 1.3h10.663l.314-1.895C4.521 2.217.705 1.439.705 1.439z" id="a"/><path d="M14.671 4.08h-.251l.716-2.861H4.261l-3.504 21.4H11.63l1.35-8.221c.433-2.664 2.133-4.271 4.961-4.271 1.385 0 2.102.525 3.136 1.168L22.81.736a29.194 29.194 0 00-.585-.006c-3.298 0-5.284.685-7.554 3.35z" id="c"/><path d="M6.176.438l-4.462 25.73-.776 4.451h16.523c4.408 0 9.318-1.203 11.937-4.451.856-1.065 1.463-2.342 1.73-3.871.622-3.603-1.261-6.004-4.693-7.167l.045-.239c3.066-.846 4.975-3.444 5.44-6.086C33.126 1.84 26.772.438 20.302.438H6.176zm9.986 7.284h.84c1.77 0 4.057-.161 3.67 2.083-.362 2.083-2.384 2.241-4.156 2.241h-1.108l.754-4.324zm-1.854 10.689h1.194c1.948 0 5.061-.039 4.62 2.484-.432 2.482-3.321 2.521-5.31 2.521H13.44l.868-5.005z" id="e"/><path d="M.505 12.264c-.426 2.602.033 4.719 1.113 6.371 1.977 3.017 6.044 4.472 10.601 4.472 3.982 0 8.733-1.43 11.729-4.472h.003a10.42 10.42 0 002.109-3.068H15.477c-.375 1.008-1.345 1.774-2.483 1.774-2.277 0-2.255-1.931-1.968-3.67h15.805C28.695 5.653 23.218.735 15.255.735 8.13.735 1.669 5.171.505 12.264zM14.65 6.46c1.561 0 2.439 1.326 2.203 2.78h-5.106c.249-1.493 1.258-2.78 2.903-2.78z" id="g"/><path d="M1.153 12.264c-.428 2.602.028 4.719 1.108 6.371 1.976 3.017 6.051 4.472 10.606 4.472 3.983 0 8.729-1.43 11.73-4.472a10.326 10.326 0 002.109-3.068H16.121c-.374 1.008-1.343 1.774-2.481 1.774-2.277 0-2.255-1.931-1.971-3.67h15.807C29.343 5.653 23.866.735 15.898.735 8.776.735 2.316 5.171 1.153 12.264zM15.297 6.46c1.558 0 2.436 1.326 2.201 2.78h-5.1c.244-1.493 1.254-2.78 2.899-2.78z" id="i"/><path d="M.81 1.108l.022-.002c-.022 0-.09.002-.022.002z" id="k"/><path d="M.331 1.772C2.945 4.674 5.033 6.41 8.313 7.745c2.631 1.068 12.321-.911 12.321-.911l.903-5.496H10.87l-.076 2.542h-.258C9.278 1.781 7.196.854 4.501.854a9.88 9.88 0 00-4.17.918z" id="m"/><path d="M.898 5.775c2.176 2.642 5.824 6.109 10.51 8.152 4.934 2.149 12.431.541 14.544.157l1.079-6.531c-6.908 1.476-10.508.867-10.508.867-.003.147-.018.29-.041.437-.273 1.653-1.374 3.226-3.438 3.226-1.981 0-2.587-1.451-2.31-3.146a3.693 3.693 0 011.081-2.04C8.778 5.042 4.522.635 4.522.635 2.954 2.038 1.718 3.858.898 5.775z" id="o"/><path d="M8.536 11.224c2.355 0 4.079-.746 5.792-2.002 0 0-6.667-1.151-13.49-8.585-.624 5.071 1.818 10.587 7.698 10.587z" id="q"/><path d="M.617 2.771c.738.557 1.868 1.05 3.011 1.05 2.39 0 4.615-1.445 5.363-3.358C5.375 1.325.617 2.771.617 2.771z" id="s"/><path d="M.412 4.677c3.785-1.492 9.073-2.682 9.073-2.682-.749-.896-2-1.465-3.494-1.465C3.284.53.785 2.384.412 4.677z" id="u"/><path d="M1.549.338L.892 4.361s6.174-1.684 11.291-2.544l.245-1.479H1.549z" id="w"/><path d="M1.248 3.191L.246 9.862s5.828-1.689 11.206-2.774l1.09-6.442C7.426 1.505 1.248 3.191 1.248 3.191z" id="y"/><path d="M.53 3.689L.032 6.73H10.91l.976-5.968C6.441 2.005.53 3.689.53 3.689z" id="A"/><path d="M1.89.964L.78 7.739h10.878l.72-4.427C9.883 1.888 7.305.954 2.73.954c-.273 0-.553.004-.84.01z" id="C"/><path d="M1.439.804L.492 7.243s4.621-.295 10.648 2.522c.7-3.159 2.606-4.519 4.825-4.519.432 0 .797.051 1.129.138C11.693 2.25 7.9.68 3.589.68c-.7 0-1.413.041-2.15.124z" id="E"/><path d="M.291.338l-.077.831c4.779-.417 8.047.838 10.233 1.874l.72-2.705H.291z" id="G"/><path d="M.695 4.198s4.928 2.305 7.003 3.607L8.836.853a28.8 28.8 0 00-.581-.006c-3.303 0-5.284.684-7.56 3.351z" id="I"/><path d="M.638 3.286c0 1.417 1.175 2.359 3.308 2.65l2.126.294c.828.104 1.817.358 1.817.984 0 .641-1.035 1.106-2.46 1.106-2.181 0-2.86-.811-3.207-1.515l-.048-.099-1.897.597.039.119c.19.62 1.12 2.641 5.063 2.641 2.859 0 4.498-1.095 4.498-3.006 0-1.472-1.069-2.351-3.27-2.689l-2.103-.317c-1.877-.235-1.877-.668-1.877-.878 0-.724 1.149-.982 2.227-.982 2.242 0 2.782.794 2.993 1.392l.042.117 1.878-.616-.045-.123C9.504 2.352 8.839.497 4.903.497c-2.75 0-4.265.99-4.265 2.789z" id="K"/><path d="M.183.724v9.114h1.104V5.801h3.586l2.934 4.037h1.368l-3.01-4.062c1.103-.05 2.873-.602 2.873-2.507C9.038 1.037 6.905.724 5.45.724H.183zm1.104.977h3.912c1.594 0 2.785.226 2.785 1.554 0 1.342-1.191 1.569-2.785 1.569H1.287V1.701z" id="M"/><path d="M.079 5.338c0 3.234 2.708 4.725 5.341 4.725 2.634 0 5.342-1.491 5.342-4.725 0-3.034-2.245-4.841-5.342-4.841C2.323.497.079 2.304.079 5.338zm1.129-.201c0-2.031 1.567-3.712 4.212-3.712 2.645 0 4.214 1.681 4.214 3.712 0 2.77-1.994 3.948-4.214 3.948-2.244 0-4.212-1.178-4.212-3.948z" id="O"/><path d="M.938.241v5.595h2.864c1.163 0 2.74-.061 2.74-1.569 0-.932-.708-1.24-1.046-1.386.354-.17.854-.408.854-1.178C6.35.241 4.818.241 4.179.241H.938zm.678.569h2.148c1 0 1.909.008 1.909.901 0 .785-.893.916-1.678.916H1.616V.81zm0 2.387h2.702c.916 0 1.532.269 1.532 1.047 0 .855-.793.992-1.609.992H1.616V3.197z" id="Q"/><path d="M4.288.811L2.641 4.06.916.811H.239L2.31 4.683c-.369.769-.678 1.001-1.154 1.001-.209 0-.524-.031-.724-.125v.571c.254.076.508.123.769.123.725 0 1.155-.408 1.41-.9L4.967.811h-.679z" id="S"/><path d="M6.562 2.409l-.445.264.499.142c2.493.713 5.198 1.118 8.514 1.278l.261.011-.08-.761c.443.13 2.028.595 2.705.792l-2.481 1.336-.064-.6-.191-.012c-4.928-.222-7.801-.993-9.753-1.638l-.114-.037-.093.074a11.4 11.4 0 00-2.201 2.279l-.174.239.649.237c2.905 1.061 6.513 2.377 14.939 2.362l.248-.001-.071-.671 2.703.792c-.621.333-2.075 1.117-2.479 1.335l-.073-.694-.202.001c-8.438.03-12.028-1.281-14.909-2.333l-1.193-.43-.092.163a11.474 11.474 0 00-1.156 2.808l-.053.209.209.062c.707.207 1.4.46 2.129.728 2.572.939 5.772 2.106 12.461 2.324l.255.009s-.048-.446-.066-.636l2.703.792c-.622.334-2.076 1.117-2.48 1.336-.029-.252-.079-.728-.079-.728l-.192-.005C9.49 13.23 6.308 12.067 3.75 11.133c-.818-.297-1.588-.579-2.399-.806l-.242-.067-.038.248a11.262 11.262 0 00-.064 2.96l.015.15.147.04c.816.224 1.597.511 2.425.813 2.236.815 5.013 1.83 10.189 2.207l.264.02-.076-.724c.443.13 2.027.593 2.704.793l-2.481 1.335-.066-.637-.187-.014c-5.192-.364-7.849-1.333-10.191-2.191-.769-.28-1.494-.545-2.249-.761l-.365-.106.084.368a11.457 11.457 0 003.954 6.338 11.418 11.418 0 007.162 2.532c6.283 0 11.393-5.112 11.393-11.395 0-6.292-5.101-11.392-11.393-11.392-2.034 0-4.029.542-5.774 1.565zm1.01.048l-.027-.064a10.937 10.937 0 016.327-.996l-.052.09-.099.09-.089.044-.1.053-.097.046-.1.034-.1.037-.097.028-.12.054-.097.081-.099.098-.079.099-.118.018-.1.171-.115-.135-.1-.181-.107-.17-.127-.08-.099-.036-.089-.081-.082-.08-.08-.1-.116.063-.083.037-.089.062-.081.081-.081.09-.082.063-.07.099-.045.116-.035.153-.047.126-.053.134-.065.119-.07.098-.064.081-.08.09-.098.043-.055.119-.054.098.02.046a30.57 30.57 0 01-1-.17l-.009-.073-.053-.135-.082-.099-.08-.098-.108-.082-.082-.097-.08-.083-.1-.09-.098-.063-.101-.071-.134-.009-.099.063-.115.135-.1.134-.08.099-.071.127h-.082l-.082-.109-.09-.054-.027.081-.08.019h-.108l-.045-.163zm3.648.845l.002-.035.037-.145.034-.135.082-.089.098.089.081.162.056.188-.042.01-.348-.045zm8.38 3.426l-.035-.253-.098-.188-.118-.163-.099-.215-.017-.081.017-.135.055-.098.008-.099.017-.099.019-.098.081-.091.073-.126-.036-.107-.063-.144-.055-.152-.062-.146-.072-.153-.098-.177-.1-.101.164-.089-.32-.094-.121-.123-.092-.016-.08-.01-.045-.089.019-.101.082-.098.078-.064.072-.025a11.004 11.004 0 013.79 4.976s-1.849-.543-3.136-.917l-.016-.132-.043-.135-.064-.097-.09-.1-.082-.08-.08-.082-.071-.116-.045-.136v-.17l.034-.08h.082l.099.053.081.081.08.116.099.081.091.073h.097zM8.685 5.397l.138-.09.08-.026-.019-.136-.061-.395-.019-.152.008-.04c.436.087.902.175 1.401.254l-.052.081-.063.082-.081.089-.09.081-.062.081-.055.116-.026.181-.019.206.019.234v.219l.026.078.091.135.009.099.107.009.109.019h.107l.098-.047.017-.08.13-.135.099-.152.088-.18.063-.188.097-.029.101-.099.1-.116.098-.055.135.154.08.098.073.117.026.18.116.072.11-.018.079.045.063.134.072.082.099.053.099.037.026-.117.073-.09.08-.064.083.082.115.135.056.117.025.135.055.099.081.036.1-.036.099-.018.098.314v.269l.071.117.081.083.098-.019-.019-.1h.137l.115.019.137.027.134.036.127.018h.134l.116-.036.118-.082.035.181.027.205.018.1a51.584 51.584 0 01-1.272-.095l-.04-.174-.027-.199-.088.019h-.099l-.084-.055-.016-.08v-.118l-.045-.134-.073-.117-.043-.081-.073-.098-.063-.081-.136-.071-.08-.019-.098.054-.137.135-.116.117-.134.134-.126.109-.152-.028-.081-.036-.153-.018-.154.036-.143.081-.189.215-.064.122a30.23 30.23 0 01-3.86-.826l.004-.06.088-.08.119-.018h.098l.082-.082.079-.152.101-.098.099-.101.098-.161v-.088l.054-.118.019.135.062.098.135.036.081-.018.135-.063.134-.053.116-.115.019-.1-.036-.135-.035-.083h.079l.091.018.08.019.082.018h.151zM3.75 9.927a40.67 40.67 0 00-1.948-.671c.228-.812.55-1.595.963-2.333l.259.092v.009h.026c.02.007.037.014.057.019l.015.197-.035.198-.037.197.02.217v.08l.001.02.016.07.035.144.082.197.044.207.09.198.099.161.027-.126.017-.133v.197l.054.163.1.134.082.117.097.134.117.118.099.099.115.098.119.1.124.058.047.022.081.09.098.008.1.054.097.063.1.072.116.082.137.117.048.048a59.755 59.755 0 01-1.462-.517zm.748-1.077v-.235l.018-.081.036-.134.008-.135.037-.126.035-.089.082-.064.077-.034.001-.003.099-.025h.101l.115-.018.108-.018.101-.036.029-.014.082.028.013.066.01.02.048.087.058.109.056.108.045.081h.089l.082-.054.081-.1v-.115l.026-.039c1.159.36 2.508.706 4.194.98l-.102.335-.063.152-.082.171-.053.18v.18l.053.135.082.117.063.117.053.135.039.125.007.133.018.119.035.098.1.136.098.134.118.1.117.081.133.072.134.045.127.053.136.028.098.016.09-.016.082-.028.08-.053.081-.064.091-.072.079-.062.081-.082.081-.035.099.035.091.082.044.116.018.1v.332l.008.029a33.647 33.647 0 01-4.287-.73l-.028-.027-.099-.089-.082-.064-.078-.063-.099-.072-.113-.131-.041-.049-.134-.098-.082-.054-.135-.099-.08-.063-.082-.036-.081-.036-.109-.009-.08.009-.098.016-.081.056-.08.063-.09.071-.1.01-.026-.099-.035-.081-.155.054-.135.116h-.143l-.114-.116-.103-.172-.017-.18.017-.151.011-.041.007-.041.063-.098-.036-.082v-.09l-.027-.099-.133.018-.081-.081v-.179l.044-.189.019-.18-.038-.179-.078-.055-.083-.018-.082.055-.09.062-.099.081-.094.037-.101.035-.081.081-.018-.116zm14.555 2.058v-.297l.018-.314-.002-.035c1.076-.578 3.485-1.875 3.499-1.885.457 1.202.718 2.499.718 3.859 0 4.036-2.197 7.569-5.454 9.468l-.047-.062-.08-.151-.1-.125-.08-.137-.07-.099-.082-.089h-.081l-.136.117-.082.089-.081.064-.098.063-.09.051-.144-.097-.09-.036-.08-.019h-.081l-.081.019-.081.036-.09.08-.117.017-.127-.133-.134-.063-.133.027-.118.072-.098.046-.117.051h-.1l-.081-.017h-.09l-.08-.034-.082-.101-.055-.078-.123-.082h-.153l-.154.045-.225.098-.171.036-.161-.019-.17-.044-.155-.081-.162-.116-.154-.136-.142-.171-.089-.061-.082-.018-.081.018-.08.043-.116.118-.119.106-.116.084-.118.081-.153.017-.143-.036-.153-.036-.134.072-.118.082-.098.052-.117.026-.099.055-.08.08-.081.102-.082.097-.091.09-.081.082-.097.062-.081.018-.1-.036-.089-.044-.081-.082-.082-.09-.081-.082-.088-.1-.081-.097-.063-.099-.081-.099-.091-.089-.08-.026h-.081l-.081.026-.099.036-.09.071-.099.047-.081.061-.062.11h-.153l-.1.042-.061.155-.019.243h-.171l-.082-.009-.081-.018-.09-.021-.079-.017h-.082l-.081.017v-.078l-.081-.019-.036.118-.017.098-.098.063-.083-.045-.154-.089-.097.089-.054.08-.022.082a10.946 10.946 0 01-2.042-1.304 10.968 10.968 0 01-3.694-5.707c.608.192 1.207.404 1.834.633.758.278 1.577.575 2.531.864v.002l-.013.124-.024.217-.008.334.116.188.126.18.116.18.137.188.134.179.116.181.116.207.1.198.1.197.079.216.081.216.091.215.008.011.108.143.083.027.078.037.099.018.101.017.097.027.091.034-.019-.151-.034-.143-.002-.009-.052-.144-.044-.143-.083-.091-.091-.099-.063-.396-.016-.387.072-.378.181-.332.079-.1.101-.07.079-.08.089-.065.083-.081.078-.072c1.447.316 3.173.585 5.31.742.021.216.098.928.098.928l4.017-2.164-3.358-.983.004-.014.019-.1.045-.1.098-.132.116-.136.101-.154.069-.161.064-.27.018-.261v-.269l-.031-.235c.326.016.658.03 1.001.042l.108 1.005 3.76-2.026.009.02.053.089.117.107.063-.144.017-.08-.017-.091-.008-.028.024-.012-.031-.01-.031-.112-.034-.171-.065-.143-.072-.089-.027-.1-.115-.081-.09.073-.026.108.098.285.053.138-3.984-1.162.009-.026.065-.145.017-.116.035-.081.099-.118.064-.152.037-.153v-.143l-.057-.081-.08-.036-.115-.018-.1-.02-.099-.061-.099-.081-.098-.1-.1-.108-.099-.098-.021-.022-.086-.076-.099-.117-.098-.118-.082-.027-.099.082-.079.098-.074.117-.058.041-.085.057-.153.018-.082-.018-.138-.057-.015-.005-.078-.036-.099-.098-.055-.153v-.164a56.67 56.67 0 002.256.117l.052.217.035.122.039.139.062.27.064.251.088.241.109.038.054-.134.036-.082.062-.269.036-.262.034-.192.012-.076.09-.235.008-.009c.241.006.488.009.741.011l.077.053.119.162.023.094.057.237.074.352.062.368.062.378h.118l.115.198.072.134.081.135.098.099.025.036.039.064.019-.064.017-.054-.054-.279-.046-.233-.034-.234-.018-.254.116.056.136.053.116.028h.135zM3.75 14.053c-.788-.286-1.535-.555-2.312-.778a10.903 10.903 0 01-.054-1.039c0-.468.037-.937.097-1.402.706.209 1.393.454 2.113.718.296.108.601.216.914.329l-.092.079-.118.1-.071.099-.026.134v.163l.026.17.055.163.062.116.054.133.043.12.075.097.044-.08.037-.09-.019.117.019.099.017.098.018.09.066.179.037.095.032.084.062.172.099.161.083.171.115.162.033.043a50.648 50.648 0 01-1.409-.503zm11.709-1.855l.026-.039.079-.235.036-.099.03-.08.079-.153.031-.063.073.683-.354-.014zm-6.352 3.426l.039-.114.108-.063h.162l.134-.07.08-.118.055-.142.009-.17V14.8l-.009-.152.009-.154.071-.178.064-.163.072-.189.081-.161.017-.04.028-.058.053-.118.046-.098.053-.117v-.029c.73.118 1.522.221 2.387.307l.005.055-.005.058-.014.201-.043.273-.056.194-.043.18-.037.198v.207l.054.181.062.153.063.16.056.181.034.325.004.119a36.645 36.645 0 01-3.539-.511zm11.924-4.5l-.073.079-.044.109-.018.145-.018.152-.1.036v.082l-.097.098-.02.019-.098.116-.083.126-.078.153-.054.098.132.119.119.08.119.117.116.116.142-.018.138-.08.033.171v.097l.017.082.081.045.136-.144.045-.133.055-.236v-.251l-.019-.224-.036-.252-.001-.001-.033-.098-.082-.198-.045.08-.036-.171-.018-.179-.047-.135h-.133zm1.312 1.347l-.034.082-.038.082-.017.089.035.128.083.07h.089l.097.116.018.101v.116l.027.099.153.063.154.018.116.178.047.092.08.019.036-.111v-.08l-.018-.081-.036-.098v-.179l-.099-.207-.062-.126-.081-.118-.09-.116-.081-.091-.081-.046-.083-.035-.097-.018-.118.053zm-1.78.784h-.134l-.117.046-.019.088.119.1.114.079.101-.096.099-.055.035-.082-.1-.08h-.098zm1.546.789l-.08.136-.072.153-.045.153-.153.279-.099.035-.062-.089-.054-.081-.082-.117-.053-.145-.064-.15-.08-.117-.135.017-.154.119-.098.062-.1.069-.097.063-.082.055-.099.063-.098.062-.109.072-.124.099-.09.1-.163.08-.153.083-.142.098-.136.107-.155.1-.142.097-.154.1-.16.08-.11.056-.116.061-.098.082-.062.117v.098l.016.119.019.116-.035.169-.058.1-.097.063-.025.061-.019.056-.038.117-.061.197v.152l.116.082.146.037.15.016.155-.016.08-.019.1-.035.097-.046.083-.052.098-.057.09-.043.099-.055.099-.009h.097l.119.1.116.142.081.102.061.132.073.136.063.134.073.127.099.107.099.045.125.019.118-.1.099-.152.152-.099.153-.099.133-.098.146-.118.152-.099.136-.115.142-.1.155-.117.145-.136.097-.136.017-.025.1-.199.055-.233.034-.269.018-.252.011-.244-.011-.25-.018-.296-.018-.334-.054-.314-.044-.304-.118.095zm-1.761 4.147l-.1.008-.052.091.072.098.1.063.077-.019.035-.098-.035-.162-.097.019z" id="U"/></defs><g fill="none" fill-rule="evenodd"><g transform="translate(152 31)"><mask id="b" fill="#fff"><use xlink:href="#a"/></mask><path fill="#0060A9" mask="url(#b)" d="M-4.639 7.74h20.977V-4.156H-4.639z"/></g><g transform="translate(32 11)"><mask id="d" fill="#fff"><use xlink:href="#c"/></mask><path fill="#0060A9" mask="url(#d)" d="M-4.243 27.619h32.054v-31.89H-4.243z"/></g><g transform="translate(0 3)"><mask id="f" fill="#fff"><use xlink:href="#e"/></mask><path fill="#0060A9" mask="url(#f)" d="M-4.062 35.619h41.129V-4.562H-4.062z"/></g><g transform="translate(55 11)"><mask id="h" fill="#fff"><use xlink:href="#g"/></mask><path fill="#0060A9" mask="url(#h)" d="M-4.653 28.107h36.85V-4.265h-36.85z"/></g><path fill="#0060A9" d="M114.605 12.218l-1.319 8.062h5.268l2.535-.281-.025.159-2.63 2.419-8.19 9.594-.24 1.448h23.607l1.317-8.06h-6.196l-2.27.243.04-.242 2.76-2.7 8.21-9.43.198-1.212z"/><g transform="translate(83 11)"><mask id="j" fill="#fff"><use xlink:href="#i"/></mask><path fill="#0060A9" mask="url(#j)" d="M-4.006 28.107h36.849V-4.265H-4.006z"/></g><g transform="translate(178 21)"><mask id="l" fill="#fff"><use xlink:href="#k"/></mask><path fill="#0060A9" mask="url(#l)" d="M-4.22 6.107H5.839V-3.895H-4.22z"/></g><g transform="translate(145 11)"><mask id="n" fill="#fff"><use xlink:href="#m"/></mask><path fill="#0060A9" mask="url(#n)" d="M-4.67 13.061h31.207V-4.146H-4.67z"/></g><g transform="translate(138 14)"><mask id="p" fill="#fff"><use xlink:href="#o"/></mask><path fill="#0060A9" mask="url(#p)" d="M-4.102 20.023H32.03V-4.365H-4.102z"/></g><g transform="translate(137 23)"><mask id="r" fill="#fff"><use xlink:href="#q"/></mask><path fill="#0060A9" mask="url(#r)" d="M-4.258 16.223h23.586V-4.363H-4.258z"/></g><g transform="translate(173 5)"><mask id="t" fill="#fff"><use xlink:href="#s"/></mask><path fill="#0060A9" mask="url(#t)" d="M-4.384 8.821h18.375V-4.537H-4.384z"/></g><g transform="translate(172)"><mask id="v" fill="#fff"><use xlink:href="#u"/></mask><path fill="#0060A9" mask="url(#v)" d="M-4.588 9.677h19.073V-4.47H-4.588z"/></g><g transform="translate(169 12)"><mask id="x" fill="#fff"><use xlink:href="#w"/></mask><path fill="#0060A9" mask="url(#x)" d="M-4.108 9.361h21.536V-4.662H-4.108z"/></g><g transform="translate(168 17)"><mask id="z" fill="#fff"><use xlink:href="#y"/></mask><path fill="#0060A9" mask="url(#z)" d="M-4.754 14.862h22.296V-4.354H-4.754z"/></g><g transform="translate(167 27)"><mask id="B" fill="#fff"><use xlink:href="#A"/></mask><path fill="#0060A9" mask="url(#B)" d="M-4.968 11.73h21.854V-4.239H-4.968z"/></g><g transform="translate(181 26)"><mask id="D" fill="#fff"><use xlink:href="#C"/></mask><path fill="#0060A9" mask="url(#D)" d="M-4.22 12.739h21.598V-4.046H-4.22z"/></g><g transform="translate(183 16)"><mask id="F" fill="#fff"><use xlink:href="#E"/></mask><path fill="#0060A9" mask="url(#F)" d="M-4.508 14.765h26.602V-4.32H-4.508z"/></g><g transform="translate(185 12)"><mask id="H" fill="#fff"><use xlink:href="#G"/></mask><path fill="#0060A9" mask="url(#H)" d="M-4.786 8.043h20.953V-4.662H-4.786z"/></g><g transform="translate(195 11)"><mask id="J" fill="#fff"><use xlink:href="#I"/></mask><path fill="#0060A9" mask="url(#J)" d="M-4.305 12.805h18.141V-4.153H-4.305z"/></g><path fill="#0060A9" d="M204.94 7.218v.302h.96v2.902h.354V7.52h.958v-.302zm5.03.002l-.805 2.591h-.01l-.816-2.592h-.55v3.204h.321v-2.93h.012l.901 2.93h.275l.897-2.93h.012v2.93h.321V7.22z"/><g transform="translate(15 42)"><mask id="L" fill="#fff"><use xlink:href="#K"/></mask><path fill="#00ACCD" mask="url(#L)" d="M-4.723 15.063h19.6V-4.503h-19.6z"/></g><path fill="#00ACCD" d="M26.167 42.723v9.114h8.587v-1.79h-6.547v-2.015h5.506V46.24h-5.506v-1.725h6.397v-1.792zm9.76 0v9.114h8.588v-1.79H37.97v-2.015h5.505V46.24H37.97v-1.725h6.395v-1.792zm9.762.001v9.113h8.65v-1.84h-6.61v-7.273zm9.761-.001v9.114h8.587v-1.79h-6.545v-2.015h5.504V46.24h-5.504v-1.725h6.395v-1.792zm23.202 9.115h1.103v-9.113h-1.103zm11.838-9.114v7.497l-6.783-7.497H82.14v9.113h1.054v-8.136l7.297 8.136h1.104v-9.113zm2.566 0v.977h4.4v8.136h1.104v-8.136h4.402v-.977zm11.367 0v9.113h8.276v-.977h-7.173v-3.272h5.868v-.978h-5.868v-2.909h7.023v-.977z"/><g transform="translate(114 42)"><mask id="N" fill="#fff"><use xlink:href="#M"/></mask><path fill="#00ACCD" mask="url(#N)" d="M-4.816 14.838h18.991V-4.276H-4.816z"/></g><path fill="#00ACCD" d="M133.689 42.724v7.497l-6.783-7.497h-1.568v9.113h1.054v-8.136l7.297 8.136h1.103v-9.113zm7.204 0l-4.69 9.113h1.228l1.19-2.369h5.883l1.18 2.37h1.24l-4.677-9.114h-1.354zm.678.865l2.445 4.901h-4.89l2.445-4.9zm4.268-.865v.977h4.401v8.136h1.103v-8.136h4.402v-.977zm11.366 9.114h1.103v-9.113h-1.103z"/><g transform="translate(160 42)"><mask id="P" fill="#fff"><use xlink:href="#O"/></mask><path fill="#00ACCD" mask="url(#P)" d="M-4.921 15.063h20.683V-4.503H-4.921z"/></g><path fill="#00ACCD" d="M180.888 42.724v7.497l-6.783-7.497h-1.57v9.113h1.055v-8.136l7.298 8.136h1.103v-9.113zm7.205 0l-4.69 9.113h1.228l1.191-2.369h5.882l1.178 2.37h1.241l-4.676-9.114h-1.354zm.677.865l2.444 4.901h-4.89l2.446-4.9zm6.765-.865v9.113h8.301v-.977h-7.198v-8.136z"/><g transform="translate(0 46)"><mask id="R" fill="#fff"><use xlink:href="#Q"/></mask><path fill="#00ACCD" mask="url(#R)" d="M-4.062 10.836h15.604V-4.759H-4.062z"/></g><g transform="translate(7 47)"><mask id="T" fill="#fff"><use xlink:href="#S"/></mask><path fill="#00ACCD" mask="url(#T)" d="M-4.761 11.253H9.966V-4.189H-4.761z"/></g><g transform="translate(204 34)"><mask id="V" fill="#fff"><use xlink:href="#U"/></mask><path fill="#00ACCD" mask="url(#V)" d="M-4.061 28.631h32.79V-4.157h-32.79z"/></g><path fill="#00ACCD" d="M72.81 42.723l-2.978 3.654-2.994-3.654H64.32l4.49 5.513v3.601h2.042v-3.6l4.49-5.514z"/></g></svg>